<svg xmlns="http://www.w3.org/2000/svg" width="84.964" height="97.897" viewBox="0 0 84.964 97.897">
  <g id="Group_1374" data-name="Group 1374" transform="translate(-204.501 -17.073)">
    <rect id="Rectangle_911" data-name="Rectangle 911" width="24.331" height="17.853" transform="translate(204.501 97.117)" fill="#1a1818"/>
    <path id="Path_988" data-name="Path 988" d="M279.661,26.389Q269.866,17.1,253.2,17.1l-48.661-.024-.016,35.681,24.33.012.008-15.082,21.529.012q6.927,0,11.056,3.728a12.467,12.467,0,0,1,4.125,9.721,12.957,12.957,0,0,1-4.058,10.011q-4.06,3.708-11.136,3.716l-17.356-.008-4.173,0-24.335-.008L204.5,85.017l24.33.012v0l23.3.008q17.1.012,27.212-9.336t10.11-24.835Q289.463,35.661,279.661,26.389Z" transform="translate(0.007 0)" fill="#1a1818"/>
  </g>
</svg>
